<?xml version="1.0" encoding="utf-8"?>
<svg viewBox="0 0 400 400" xmlns="http://www.w3.org/2000/svg" xmlns:bx="https://boxy-svg.com">
  <path d="M 274.294 175.996 m -196.256 0 a 196.256 196.256 0 1 0 392.512 0 a 196.256 196.256 0 1 0 -392.512 0 Z M 274.294 175.996 m -173.191 0 a 173.191 173.191 0 0 1 346.382 0 a 173.191 173.191 0 0 1 -346.382 0 Z" style="fill: rgb(255, 87, 87);" transform="matrix(-0.661287, 0.750133, -0.750133, -0.661287, 513.478943, 109.289886)" bx:shape="ring 274.294 175.996 173.191 173.191 196.256 196.256 1@848a0b77"/>
  <path d="M 307.729 83.805 L 106.329 83.805 C 104.231 83.805 102.529 85.507 102.529 87.605 L 102.529 102.805 C 102.529 104.903 104.231 106.605 106.329 106.605 L 113.929 106.605 L 113.929 162.594 C 109.187 165.713 106.332 171.007 106.329 176.683 L 106.329 201.605 C 106.325 206.755 108.074 211.753 111.288 215.777 L 85.629 228.606 C 84.342 229.25 83.529 230.565 83.529 232.005 L 83.529 277.605 C 83.529 277.916 83.567 278.226 83.643 278.527 L 91.243 308.927 C 91.665 310.618 93.185 311.805 94.929 311.805 L 163.329 311.805 C 164.912 311.805 166.331 310.822 166.887 309.339 L 176.215 284.466 L 187.242 295.492 C 187.955 296.204 188.921 296.605 189.929 296.605 L 243.129 296.605 C 243.951 296.605 244.751 296.339 245.409 295.845 L 259.596 285.205 L 288.729 285.205 C 295.022 285.198 300.122 280.098 300.129 273.805 L 300.129 106.605 L 307.729 106.605 C 309.827 106.605 311.529 104.903 311.529 102.805 L 311.529 87.605 C 311.529 85.507 309.827 83.805 307.729 83.805 Z M 123.206 167.405 C 124.204 167.405 125.195 167.566 126.141 167.882 L 136.112 171.205 C 139.702 172.399 142.518 175.215 143.713 178.805 L 113.929 178.805 L 113.929 176.683 C 113.934 171.562 118.085 167.411 123.206 167.405 Z M 130.357 232.005 L 127.901 232.005 L 124.686 223.967 C 127.619 224.551 130.638 224.551 133.571 223.967 Z M 129.129 216.805 C 120.738 216.795 113.938 209.996 113.929 201.605 L 113.929 186.405 L 144.329 186.405 L 144.329 201.605 C 144.319 209.996 137.519 216.795 129.129 216.805 Z M 121.167 235.632 L 116.594 244.777 L 106.138 226.85 L 115.734 222.051 Z M 127.677 239.605 L 130.58 239.605 L 137.088 252.62 L 129.129 266.263 L 121.17 252.62 Z M 141.663 244.777 L 137.091 235.632 L 142.523 222.051 L 152.12 226.85 Z M 212.729 289.005 L 191.503 289.005 L 177.416 274.918 C 175.461 272.964 172.141 273.683 171.17 276.271 L 160.696 304.205 L 97.896 304.205 L 91.129 277.137 L 91.129 234.354 L 99.325 230.255 L 125.847 275.72 C 127.313 278.234 130.945 278.234 132.411 275.72 L 158.933 230.255 L 175.8 238.689 L 190.43 264.29 C 190.722 264.803 191.13 265.239 191.621 265.567 L 212.729 279.639 Z M 241.862 289.005 L 220.329 289.005 L 220.329 279.18 L 233.303 266.205 L 238.562 266.205 L 232.367 275.498 L 238.691 279.713 L 242.629 273.805 L 248.695 273.805 L 253.173 280.522 Z M 292.529 273.805 C 292.526 275.903 290.827 277.602 288.729 277.605 L 260.362 277.605 L 253.891 267.898 C 253.186 266.84 252 266.205 250.729 266.205 L 246.929 266.205 L 246.929 262.405 C 246.929 260.306 245.227 258.605 243.129 258.605 L 231.729 258.605 C 230.721 258.605 229.755 259.006 229.042 259.718 L 216.044 272.715 L 196.583 259.741 L 181.828 233.92 C 181.456 233.268 180.899 232.742 180.228 232.406 L 146.969 215.777 C 150.184 211.753 151.933 206.755 151.929 201.605 L 151.929 182.605 C 151.936 174.159 146.53 166.658 138.515 163.995 L 128.543 160.671 C 126.823 160.097 125.021 159.805 123.206 159.805 C 122.64 159.805 122.081 159.835 121.529 159.889 L 121.529 106.605 L 292.529 106.605 Z M 303.929 99.005 L 110.129 99.005 L 110.129 91.405 L 303.929 91.405 Z" style="fill: rgb(255, 87, 87);"/>
  <rect x="277.329" y="232.005" width="7.6" height="7.6" style="fill: rgb(255, 87, 87);"/>
  <rect x="277.329" y="121.805" width="7.6" height="7.6" style="fill: rgb(255, 87, 87);"/>
  <path d="M 170.796 160.895 C 158.267 190.218 178.937 223.015 210.796 224.361 L 221.089 238.085 C 221.806 239.042 222.933 239.605 224.129 239.605 L 269.729 239.605 L 269.729 232.005 L 226.029 232.005 L 219.904 223.839 C 254.567 218.32 270.255 177.347 248.144 150.089 C 244.335 145.393 239.629 141.501 234.302 138.64 L 241.229 129.405 L 269.729 129.405 L 269.729 121.805 L 239.329 121.805 C 238.133 121.805 237.006 122.368 236.289 123.325 L 227.13 135.537 C 207.616 129.043 186.172 136.42 174.784 153.545 L 166.369 142.325 C 165.651 141.368 164.525 140.805 163.329 140.805 L 144.329 140.805 L 144.329 148.405 L 161.429 148.405 Z M 212.729 216.805 C 193.223 216.781 176.894 202.011 174.919 182.605 L 212.729 182.605 C 213.737 182.607 214.704 182.206 215.416 181.492 L 215.416 181.493 L 242.137 154.77 C 260.656 177.392 247.743 211.578 218.892 216.305 C 216.855 216.64 214.794 216.806 212.729 216.805 Z M 216.529 140.995 C 223.955 141.738 230.995 144.661 236.763 149.397 L 216.529 169.631 Z M 208.929 140.995 L 208.929 175.005 L 174.919 175.005 C 176.751 157.036 190.959 142.827 208.929 140.995 Z" style="fill: rgb(255, 87, 87);"/>
  <rect x="129.129" y="140.805" width="7.6" height="7.6" style="fill: rgb(255, 87, 87);"/>
  <rect x="277.329" y="137.005" width="7.6" height="7.6" style="fill: rgb(255, 87, 87);"/>
  <rect x="254.529" y="137.005" width="15.2" height="7.6" style="fill: rgb(255, 87, 87);"/>
  <rect x="254.529" y="216.805" width="15.2" height="7.6" style="fill: rgb(255, 87, 87);"/>
  <rect x="277.329" y="216.805" width="7.6" height="7.6" style="fill: rgb(255, 87, 87);"/>
  <rect x="129.129" y="125.605" width="7.6" height="7.6" style="fill: rgb(255, 87, 87);"/>
  <rect x="144.329" y="125.605" width="19" height="7.6" style="fill: rgb(255, 87, 87);"/>
</svg>