<?xml version="1.0" encoding="utf-8"?>
<svg viewBox="0 0 500 200" xmlns="http://www.w3.org/2000/svg" xmlns:bx="https://boxy-svg.com">
  <defs>
    <linearGradient gradientUnits="userSpaceOnUse" x1="461.708" y1="163.386" x2="461.708" y2="351.878" id="gradient-0" gradientTransform="matrix(0.99738, -0.036833, 0.136626, 1.016467, -21.113091, 14.315626)">
      <stop offset="0" style="stop-color: rgba(221, 221, 221, 1)"/>
      <stop offset="1" style="stop-color: rgba(170, 170, 170, 1)"/>
    </linearGradient>
    <filter id="gaussian-blur-filter-1" color-interpolation-filters="sRGB" x="-500%" y="-500%" width="1000%" height="1000%" bx:preset="gaussian-blur 1 10">
      <feGaussianBlur stdDeviation="10 10" edgeMode="none"/>
    </filter>
    <linearGradient gradientUnits="userSpaceOnUse" x1="253.867" y1="31.813" x2="253.867" y2="178.938" id="gradient-2" gradientTransform="matrix(-0.048143, -0.998841, 2.171358, -0.104655, 60.918056, 374.866654)">
      <stop offset="0" style="stop-color: rgba(0, 0, 255, 1)"/>
      <stop offset="1" style="stop-color: rgba(0, 0, 153, 1)"/>
    </linearGradient>
    <linearGradient gradientUnits="userSpaceOnUse" x1="512.794" y1="288.45" x2="512.794" y2="388.43" id="gradient-1" gradientTransform="matrix(-0.797048, -0.603916, 0.790046, -1.042704, 572.636619, 954.412421)">
      <stop offset="0" style="stop-color: rgba(221, 221, 221, 1)"/>
      <stop offset="1" style="stop-color: rgb(111, 111, 111);"/>
    </linearGradient>
    <radialGradient gradientUnits="userSpaceOnUse" cx="92.108" cy="116.474" r="85.5" id="gradient-3" gradientTransform="matrix(-0.52062, -1.107518, 1.058562, -0.497603, 7.619701, 289.458082)" spreadMethod="pad">
      <stop offset="0" style="stop-color: rgb(255, 255, 255);"/>
      <stop offset="1" style="stop-color: rgba(255, 255, 255, 0);"/>
    </radialGradient>
    <filter id="gaussian-blur-filter-0" color-interpolation-filters="sRGB" x="-500%" y="-500%" width="1000%" height="1000%" bx:preset="gaussian-blur 1 4.8">
      <feGaussianBlur stdDeviation="4.8 4.8" edgeMode="none"/>
    </filter>
  </defs>
  <rect x="-25.547" y="-21.447" width="532.943" height="246.775" style="fill: rgb(100, 0, 255); visibility: hidden;"/>
  <path style="paint-order: fill; fill: url(#gradient-0);" transform="matrix(-0.158968, -1.003185, 1.914784, -0.299311, -175.044983, 610.210022)" d="M 403.184 166.186 A 94.246 94.246 0 1 1 403.184 349.078 A 92.089 92.089 0 0 0 403.184 166.186 Z" bx:shape="crescent 425.984 257.632 94.246 208 0.81 1@9f8330a7"/>
  <path d="M 201.48 45.234 L 168.192 51.646 C 163.305 51.646 133.266 61.26 133.266 66.147 L 132.16 70.903 C 132.16 75.79 130.665 77.289 135.552 77.289 C 135.552 77.289 107.065 96.497 103.198 92.63 C 99.331 88.763 97.743 82.9 97.743 74.353 L 96.569 71.637 C 96.569 63.09 97.534 59.115 101.401 55.248 C 105.268 51.381 133.861 36.665 142.408 36.665 L 208.327 28.634 M 210.738 61.469 C 210.738 52.922 219.545 33.643 223.412 29.776 C 227.278 25.909 246.892 31.131 260.665 33.834 L 298.127 47.622 L 289 58.724 M 289 58.724 L 240.892 45.644 C 236.005 45.644 230.279 58.63 230.279 58.63 M 323.224 69.248 L 320.474 96.379 L 313.684 90.716 L 312.839 60.123" style="fill: rgba(0, 0, 0, 0.37); fill-opacity: 0.97; white-space: pre; filter: url(#gaussian-blur-filter-1);" transform="matrix(1.24166, 0, 0, 1, 18.828897, -16.481575)"/>
  <path d="M 106.842 110.341 L 107.369 110.37 C 129.673 111.59 144.759 112.199 152.642 112.199 C 154.428 112.199 155.722 111.722 156.748 110.695 C 157.775 109.669 158.268 108.375 158.252 106.589 L 158.252 96.099 L 130.662 96.099 C 122.041 96.088 115.638 94.102 111.688 90.153 C 107.739 86.203 105.753 79.8 105.742 71.179 L 105.742 67.519 C 105.753 58.898 107.739 52.495 111.688 48.545 C 115.638 44.596 122.041 42.61 130.662 42.599 L 174.022 42.599 L 174.022 60.689 L 135.552 60.689 C 133.188 60.676 131.55 61.232 130.408 62.375 C 129.265 63.517 128.709 65.155 128.722 67.519 L 128.722 69.959 C 128.709 72.323 129.265 73.961 130.408 75.103 C 131.55 76.246 133.188 76.802 135.552 76.789 L 157.532 76.789 C 165.581 76.801 171.618 78.745 175.466 82.546 C 179.267 86.393 181.21 92.433 181.222 100.489 L 181.222 106.589 C 181.21 114.645 179.287 120.701 175.466 124.523 C 171.638 128.351 165.581 130.289 157.532 130.289 C 153.374 130.289 148.964 130.209 144.32 130.049 L 133.078 129.558 C 124.773 129.151 116.178 128.581 107.301 127.847 L 106.842 127.809 Z M 133.125 128.56 L 144.362 129.049 C 148.997 129.209 153.384 129.289 157.532 129.289 C 165.429 129.289 171.092 127.481 174.758 123.815 C 178.417 120.157 180.234 114.493 180.222 106.589 L 180.222 100.489 C 180.234 92.585 178.437 86.899 174.758 83.252 C 171.112 79.573 165.429 77.777 157.532 77.789 L 135.552 77.789 C 133.029 77.776 131.002 77.111 129.701 75.81 C 128.4 74.509 127.735 72.482 127.722 69.959 L 127.722 67.519 C 127.735 64.996 128.4 62.968 129.701 61.668 C 131.002 60.367 133.029 59.702 135.552 59.689 L 173.022 59.689 L 173.022 43.599 L 130.662 43.599 C 122.189 43.588 116.18 45.468 112.396 49.253 C 108.611 53.037 106.731 59.046 106.742 67.519 L 106.742 71.179 C 106.731 79.652 108.611 85.661 112.396 89.445 C 116.18 93.23 122.189 95.11 130.662 95.099 L 159.252 95.099 L 159.252 106.589 C 159.236 108.549 158.629 110.229 157.456 111.403 C 156.282 112.576 154.602 113.199 152.642 113.199 C 144.739 113.199 129.864 112.598 107.842 111.397 L 107.842 126.888 C 116.548 127.603 124.83 128.153 133.125 128.56 Z M 182.448 110.341 L 182.975 110.37 C 205.278 111.59 220.364 112.199 228.248 112.199 C 230.034 112.199 231.328 111.722 232.354 110.695 C 233.381 109.669 233.874 108.375 233.858 106.589 L 233.858 96.099 L 206.268 96.099 C 197.647 96.088 191.263 94.081 187.294 90.153 C 183.366 86.183 181.359 79.8 181.348 71.179 L 181.348 67.519 C 181.359 58.898 183.366 52.515 187.294 48.545 C 191.263 44.617 197.647 42.61 206.268 42.599 L 273.077 42.599 L 293.481 101.403 L 313.875 42.599 L 338.765 42.599 L 334.932 52.725 C 335.856 50.6 337.048 48.797 338.504 47.325 C 342.474 43.397 348.858 41.39 357.478 41.379 L 388.008 41.379 C 396.629 41.39 403.013 43.397 406.982 47.325 C 410.91 51.295 412.917 57.678 412.928 66.299 L 412.928 105.369 C 412.917 113.99 410.91 120.373 406.982 124.343 C 403.013 128.271 396.629 130.278 388.008 130.289 L 357.478 130.289 C 348.858 130.278 342.474 128.271 338.504 124.342 C 334.577 120.373 332.569 113.99 332.558 105.369 L 332.558 66.299 C 332.564 61.855 333.1 58.006 334.156 54.776 L 306.036 129.069 L 280.926 129.069 L 249.628 46.405 L 249.628 60.689 L 211.158 60.689 C 208.794 60.676 207.156 61.232 206.014 62.375 C 204.871 63.517 204.315 65.155 204.328 67.519 L 204.328 69.959 C 204.315 72.323 204.871 73.96 206.014 75.103 C 207.156 76.246 208.794 76.802 211.158 76.789 L 233.138 76.789 C 241.187 76.801 247.224 78.745 251.072 82.546 C 254.873 86.393 256.816 92.433 256.828 100.489 L 256.828 106.589 C 256.816 114.645 254.893 120.701 251.072 124.523 C 247.244 128.351 241.187 130.289 233.138 130.289 C 228.979 130.289 224.57 130.209 219.926 130.049 L 208.684 129.558 C 200.379 129.151 191.784 128.581 182.907 127.847 L 182.448 127.809 Z M 208.731 128.56 L 219.968 129.049 C 224.603 129.209 228.989 129.289 233.138 129.289 C 241.035 129.289 246.698 127.481 250.364 123.815 C 254.023 120.157 255.84 114.493 255.828 106.589 L 255.828 100.489 C 255.84 92.585 254.043 86.899 250.364 83.252 C 246.718 79.573 241.035 77.777 233.138 77.789 L 211.158 77.789 C 208.635 77.776 206.608 77.111 205.307 75.81 C 204.006 74.509 203.341 72.482 203.328 69.959 L 203.328 67.519 C 203.341 64.996 204.006 62.968 205.307 61.668 C 206.608 60.367 208.635 59.702 211.158 59.689 L 248.628 59.689 L 248.628 43.599 L 206.268 43.599 C 197.795 43.588 191.765 45.447 188.002 49.252 C 184.197 53.017 182.337 59.046 182.348 67.519 L 182.348 71.179 C 182.337 79.652 184.196 85.681 188.002 89.445 C 191.765 93.25 197.795 95.11 206.268 95.099 L 234.858 95.099 L 234.858 106.589 C 234.842 108.549 234.235 110.229 233.062 111.403 C 231.888 112.576 230.208 113.199 228.248 113.199 C 220.344 113.199 205.469 112.598 183.448 111.397 L 183.448 126.888 C 192.154 127.603 200.436 128.153 208.731 128.56 Z M 249.635 43.599 L 281.616 128.069 L 305.346 128.069 L 337.317 43.599 L 314.587 43.599 L 293.481 104.455 L 272.365 43.599 Z M 383.128 113.199 L 362.368 113.199 C 359.846 113.186 357.818 112.521 356.517 111.22 C 355.216 109.92 354.551 107.892 354.538 105.369 L 354.538 66.299 C 354.551 63.776 355.216 61.748 356.517 60.448 C 357.818 59.147 359.846 58.482 362.368 58.469 L 383.128 58.469 C 385.647 58.482 387.673 59.147 388.972 60.448 C 390.271 61.749 390.935 63.777 390.948 66.299 L 390.948 105.369 C 390.935 107.891 390.271 109.919 388.972 111.22 C 387.673 112.521 385.647 113.186 383.128 113.199 Z M 388.264 110.513 C 389.405 109.371 389.961 107.734 389.948 105.369 L 389.948 66.299 C 389.961 63.934 389.405 62.297 388.264 61.155 C 387.123 60.012 385.489 59.456 383.128 59.469 L 362.368 59.469 C 360.004 59.456 358.367 60.012 357.224 61.155 C 356.082 62.298 355.525 63.935 355.538 66.299 L 355.538 105.369 C 355.525 107.733 356.082 109.37 357.224 110.513 C 358.367 111.656 360.004 112.212 362.368 112.199 L 383.128 112.199 C 385.489 112.212 387.123 111.656 388.264 110.513 Z M 406.274 48.033 C 402.511 44.227 396.481 42.368 388.008 42.379 L 357.478 42.379 C 349.006 42.368 342.976 44.227 339.212 48.033 C 335.407 51.797 333.547 57.826 333.558 66.299 L 333.558 105.369 C 333.547 113.842 335.407 119.871 339.212 123.635 C 342.976 127.441 349.006 129.3 357.478 129.289 L 388.008 129.289 C 396.481 129.3 402.511 127.441 406.274 123.635 C 410.079 119.871 411.939 113.842 411.928 105.369 L 411.928 66.299 C 411.939 57.826 410.08 51.797 406.274 48.033 Z" style="fill: none;" transform="matrix(1.24166, 0, 0, 1, 18.828897, -16.481575)"/>
  <path d="M 106.842 110.341 L 107.369 110.37 C 129.673 111.59 144.759 112.199 152.642 112.199 C 154.428 112.199 155.722 111.722 156.748 110.695 C 157.775 109.669 158.268 108.375 158.252 106.589 L 158.252 96.099 L 130.662 96.099 C 122.041 96.088 115.638 94.102 111.688 90.153 C 107.739 86.203 105.753 79.8 105.742 71.179 L 105.742 67.519 C 105.753 58.898 107.739 52.495 111.688 48.545 C 115.638 44.596 122.041 42.61 130.662 42.599 L 174.022 42.599 L 174.022 60.689 L 135.552 60.689 C 133.188 60.676 131.55 61.232 130.408 62.375 C 129.265 63.517 128.709 65.155 128.722 67.519 L 128.722 69.959 C 128.709 72.323 129.265 73.961 130.408 75.103 C 131.55 76.246 133.188 76.802 135.552 76.789 L 157.532 76.789 C 165.581 76.801 171.618 78.745 175.466 82.546 C 179.267 86.393 181.21 92.433 181.222 100.489 L 181.222 106.589 C 181.21 114.645 179.287 120.701 175.466 124.523 C 171.638 128.351 165.581 130.289 157.532 130.289 C 153.374 130.289 148.964 130.209 144.32 130.049 L 133.078 129.558 C 124.773 129.151 116.178 128.581 107.301 127.847 L 106.842 127.809 Z M 133.125 128.56 L 144.362 129.049 C 148.997 129.209 153.384 129.289 157.532 129.289 C 165.429 129.289 171.092 127.481 174.758 123.815 C 178.417 120.157 180.234 114.493 180.222 106.589 L 180.222 100.489 C 180.234 92.585 178.437 86.899 174.758 83.252 C 171.112 79.573 165.429 77.777 157.532 77.789 L 135.552 77.789 C 133.029 77.776 131.002 77.111 129.701 75.81 C 128.4 74.509 127.735 72.482 127.722 69.959 L 127.722 67.519 C 127.735 64.996 128.4 62.968 129.701 61.668 C 131.002 60.367 133.029 59.702 135.552 59.689 L 173.022 59.689 L 173.022 43.599 L 130.662 43.599 C 122.189 43.588 116.18 45.468 112.396 49.253 C 108.611 53.037 106.731 59.046 106.742 67.519 L 106.742 71.179 C 106.731 79.652 108.611 85.661 112.396 89.445 C 116.18 93.23 122.189 95.11 130.662 95.099 L 159.252 95.099 L 159.252 106.589 C 159.236 108.549 158.629 110.229 157.456 111.403 C 156.282 112.576 154.602 113.199 152.642 113.199 C 144.739 113.199 129.864 112.598 107.842 111.397 L 107.842 126.888 C 116.548 127.603 124.83 128.153 133.125 128.56 Z M 182.448 110.341 L 182.975 110.37 C 205.278 111.59 220.364 112.199 228.248 112.199 C 230.034 112.199 231.328 111.722 232.354 110.695 C 233.381 109.669 233.874 108.375 233.858 106.589 L 233.858 96.099 L 206.268 96.099 C 197.647 96.088 191.263 94.081 187.294 90.153 C 183.366 86.183 181.359 79.8 181.348 71.179 L 181.348 67.519 C 181.359 58.898 183.366 52.515 187.294 48.545 C 191.263 44.617 197.647 42.61 206.268 42.599 L 273.077 42.599 L 293.481 101.403 L 313.875 42.599 L 338.765 42.599 L 334.932 52.725 C 335.856 50.6 337.048 48.797 338.504 47.325 C 342.474 43.397 348.858 41.39 357.478 41.379 L 388.008 41.379 C 396.629 41.39 403.013 43.397 406.982 47.325 C 410.91 51.295 412.917 57.678 412.928 66.299 L 412.928 105.369 C 412.917 113.99 410.91 120.373 406.982 124.343 C 403.013 128.271 396.629 130.278 388.008 130.289 L 357.478 130.289 C 348.858 130.278 342.474 128.271 338.504 124.342 C 334.577 120.373 332.569 113.99 332.558 105.369 L 332.558 66.299 C 332.564 61.855 333.1 58.006 334.156 54.776 L 306.036 129.069 L 280.926 129.069 L 249.628 46.405 L 249.628 60.689 L 211.158 60.689 C 208.794 60.676 207.156 61.232 206.014 62.375 C 204.871 63.517 204.315 65.155 204.328 67.519 L 204.328 69.959 C 204.315 72.323 204.871 73.96 206.014 75.103 C 207.156 76.246 208.794 76.802 211.158 76.789 L 233.138 76.789 C 241.187 76.801 247.224 78.745 251.072 82.546 C 254.873 86.393 256.816 92.433 256.828 100.489 L 256.828 106.589 C 256.816 114.645 254.893 120.701 251.072 124.523 C 247.244 128.351 241.187 130.289 233.138 130.289 C 228.979 130.289 224.57 130.209 219.926 130.049 L 208.684 129.558 C 200.379 129.151 191.784 128.581 182.907 127.847 L 182.448 127.809 Z M 208.731 128.56 L 219.968 129.049 C 224.603 129.209 228.989 129.289 233.138 129.289 C 241.035 129.289 246.698 127.481 250.364 123.815 C 254.023 120.157 255.84 114.493 255.828 106.589 L 255.828 100.489 C 255.84 92.585 254.043 86.899 250.364 83.252 C 246.718 79.573 241.035 77.777 233.138 77.789 L 211.158 77.789 C 208.635 77.776 206.608 77.111 205.307 75.81 C 204.006 74.509 203.341 72.482 203.328 69.959 L 203.328 67.519 C 203.341 64.996 204.006 62.968 205.307 61.668 C 206.608 60.367 208.635 59.702 211.158 59.689 L 248.628 59.689 L 248.628 43.599 L 206.268 43.599 C 197.795 43.588 191.765 45.447 188.002 49.252 C 184.197 53.017 182.337 59.046 182.348 67.519 L 182.348 71.179 C 182.337 79.652 184.196 85.681 188.002 89.445 C 191.765 93.25 197.795 95.11 206.268 95.099 L 234.858 95.099 L 234.858 106.589 C 234.842 108.549 234.235 110.229 233.062 111.403 C 231.888 112.576 230.208 113.199 228.248 113.199 C 220.344 113.199 205.469 112.598 183.448 111.397 L 183.448 126.888 C 192.154 127.603 200.436 128.153 208.731 128.56 Z M 249.635 43.599 L 281.616 128.069 L 305.346 128.069 L 337.317 43.599 L 314.587 43.599 L 293.481 104.455 L 272.365 43.599 Z M 383.128 113.199 L 362.368 113.199 C 359.846 113.186 357.818 112.521 356.517 111.22 C 355.216 109.92 354.551 107.892 354.538 105.369 L 354.538 66.299 C 354.551 63.776 355.216 61.748 356.517 60.448 C 357.818 59.147 359.846 58.482 362.368 58.469 L 383.128 58.469 C 385.647 58.482 387.673 59.147 388.972 60.448 C 390.271 61.749 390.935 63.777 390.948 66.299 L 390.948 105.369 C 390.935 107.891 390.271 109.919 388.972 111.22 C 387.673 112.521 385.647 113.186 383.128 113.199 Z M 388.264 110.513 C 389.405 109.371 389.961 107.734 389.948 105.369 L 389.948 66.299 C 389.961 63.934 389.405 62.297 388.264 61.155 C 387.123 60.012 385.489 59.456 383.128 59.469 L 362.368 59.469 C 360.004 59.456 358.367 60.012 357.224 61.155 C 356.082 62.298 355.525 63.935 355.538 66.299 L 355.538 105.369 C 355.525 107.733 356.082 109.37 357.224 110.513 C 358.367 111.656 360.004 112.212 362.368 112.199 L 383.128 112.199 C 385.489 112.212 387.123 111.656 388.264 110.513 Z M 406.274 48.033 C 402.511 44.227 396.481 42.368 388.008 42.379 L 357.478 42.379 C 349.006 42.368 342.976 44.227 339.212 48.033 C 335.407 51.797 333.547 57.826 333.558 66.299 L 333.558 105.369 C 333.547 113.842 335.407 119.871 339.212 123.635 C 342.976 127.441 349.006 129.3 357.478 129.289 L 388.008 129.289 C 396.481 129.3 402.511 127.441 406.274 123.635 C 410.079 119.871 411.939 113.842 411.928 105.369 L 411.928 66.299 C 411.939 57.826 410.08 51.797 406.274 48.033 Z" style="fill: none;" transform="matrix(1.24166, 0, 0, 1, 18.828897, -16.481575)"/>
  <path d="M 101.261 143.661 L 101.261 127.181 C 123.568 128.401 138.668 129.011 146.561 129.011 C 148.434 129.011 149.921 128.461 151.021 127.361 C 152.121 126.261 152.671 124.774 152.671 122.901 L 152.671 111.911 L 124.581 111.911 C 116.034 111.911 109.828 109.978 105.961 106.111 C 102.094 102.244 100.161 96.038 100.161 87.491 L 100.161 83.831 C 100.161 75.284 102.094 69.078 105.961 65.211 C 109.828 61.344 116.034 59.411 124.581 59.411 L 167.441 59.411 L 167.441 76.501 L 129.471 76.501 C 124.584 76.501 122.141 78.944 122.141 83.831 L 122.141 86.271 C 122.141 91.158 124.584 93.601 129.471 93.601 L 151.451 93.601 C 159.424 93.601 165.284 95.471 169.031 99.211 C 172.771 102.958 174.641 108.821 174.641 116.801 L 174.641 122.901 C 174.641 130.881 172.771 136.741 169.031 140.481 C 165.284 144.228 159.424 146.101 151.451 146.101 C 147.298 146.101 142.901 146.021 138.261 145.861 L 127.021 145.371 C 118.721 144.964 110.134 144.394 101.261 143.661 ZM 176.868 143.661 L 176.868 127.181 C 199.175 128.401 214.275 129.011 222.168 129.011 C 224.041 129.011 225.528 128.461 226.628 127.361 C 227.728 126.261 228.278 124.774 228.278 122.901 L 228.278 111.911 L 200.188 111.911 C 191.641 111.911 185.435 109.978 181.568 106.111 C 177.701 102.244 175.768 96.038 175.768 87.491 L 175.768 83.831 C 175.768 75.284 177.701 69.078 181.568 65.211 C 185.435 61.344 191.641 59.411 200.188 59.411 L 243.048 59.411 L 243.048 76.501 L 205.078 76.501 C 200.191 76.501 197.748 78.944 197.748 83.831 L 197.748 86.271 C 197.748 91.158 200.191 93.601 205.078 93.601 L 227.058 93.601 C 235.031 93.601 240.891 95.471 244.638 99.211 C 248.378 102.958 250.248 108.821 250.248 116.801 L 250.248 122.901 C 250.248 130.881 248.378 136.741 244.638 140.481 C 240.891 144.228 235.031 146.101 227.058 146.101 C 222.905 146.101 218.508 146.021 213.868 145.861 L 202.628 145.371 C 194.328 144.964 185.741 144.394 176.868 143.661 ZM 266.642 59.411 L 287.402 119.241 L 308.152 59.411 L 331.962 59.411 L 299.612 144.881 L 275.192 144.881 L 242.832 59.411 L 266.642 59.411 ZM 384.371 121.681 L 384.371 82.611 C 384.371 77.724 381.931 75.281 377.051 75.281 L 356.291 75.281 C 351.404 75.281 348.961 77.724 348.961 82.611 L 348.961 121.681 C 348.961 126.568 351.404 129.011 356.291 129.011 L 377.051 129.011 C 381.931 129.011 384.371 126.568 384.371 121.681 Z M 406.351 82.611 L 406.351 121.681 C 406.351 130.228 404.418 136.434 400.551 140.301 C 396.684 144.168 390.478 146.101 381.931 146.101 L 351.401 146.101 C 342.854 146.101 336.648 144.168 332.781 140.301 C 328.914 136.434 326.981 130.228 326.981 121.681 L 326.981 82.611 C 326.981 74.064 328.914 67.858 332.781 63.991 C 336.648 60.124 342.854 58.191 351.401 58.191 L 381.931 58.191 C 390.478 58.191 396.684 60.124 400.551 63.991 C 404.418 67.858 406.351 74.064 406.351 82.611 Z" transform="matrix(1, 0, 0, 1, 0, 0)" style="fill: url(#gradient-2); white-space: pre;"/>
  <path d="M 280.128 283.543 L 239.621 314.696 L 254.08 363.709 L 211.934 334.811 L 169.788 363.709 L 184.247 314.696 L 143.74 283.543 L 194.823 282.148 L 211.934 233.997 L 229.045 282.148 Q 254.964 282.638 280.128 283.543 Z" style="fill: rgb(255, 255, 255);" transform="matrix(-0.499926, 0.866068, -0.866068, -0.499926, 449.04007, 87.436966)"/>
  <path style="fill: url(#gradient-1); paint-order: fill;" d="M 488.978 286.604 C 526.59 290.981 548.942 335.037 527.074 366.847 C 518.506 379.311 504.769 387.242 489.691 388.43 C 523.223 363.538 520.893 308.724 488.978 286.604 Z" transform="matrix(0.788006, 0.615668, -0.615668, 0.788006, 207.264648, -478.787262)"/>
  <path d="M 490.642 286.891 C 510.022 288.463 524.838 300.51 531.925 316.12 C 539.011 331.729 538.464 351.09 527.486 367.13 C 518.837 379.669 504.914 387.708 489.73 388.928 L 487.987 389.069 L 489.393 388.029 C 506.08 375.68 514.569 356.84 514.796 337.904 C 515.023 318.967 506.99 300.134 490.305 287.79 L 488.897 286.749 L 490.642 286.891 Z M 515.796 337.915 C 515.567 357.053 508.222 375.225 491.377 387.768 C 505.662 386.166 518.175 378.953 526.662 366.564 C 537.552 350.794 538.01 331.943 531.014 316.533 C 524.019 301.125 510.529 290.064 492.285 288.048 C 508.201 300.604 516.025 318.777 515.796 337.915 Z" style="fill: none; stroke-width: 2px;" transform="matrix(0.788006, 0.615668, -0.615668, 0.788006, 207.264648, -478.787262)"/>
  <path d="M 107.764 115.351 L 107.573 115.248 L 106.47 115.404 L 104.283 115.713 L 116.589 92.998 L 128.5 71.011 L 130.075 70.268 L 132.879 68.943 L 119.959 92.818 Z M 119.079 92.342 L 130.547 71.15 L 130.502 71.172 L 129.224 71.775 L 117.469 93.474 L 106.107 114.445 L 106.33 114.414 L 107.201 114.29 Z" style="fill: none;"/>
  <path d="M 107.764 115.351 L 107.573 115.248 L 106.47 115.404 L 104.283 115.713 L 116.589 92.998 L 128.5 71.011 L 130.075 70.268 L 132.879 68.943 L 119.959 92.818 Z M 119.079 92.342 L 130.547 71.15 L 130.502 71.172 L 129.224 71.775 L 117.469 93.474 L 106.107 114.445 L 106.33 114.414 L 107.201 114.29 Z" style="fill: none;"/>
  <path d="M 107.764 115.351 L 107.573 115.248 L 104.283 115.713 L 128.5 71.011 L 132.879 68.944 Z M 130.547 71.15 L 129.224 71.775 L 106.107 114.445 L 107.201 114.29 Z" style="fill: none;"/>
  <path d="M 171.245 103.364 L 120.458 142.423 L 138.586 203.874 L 85.745 167.642 L 32.903 203.874 L 51.031 142.423 L 0.245 103.364 L 64.291 101.615 L 85.745 41.244 L 107.198 101.615 C 128.863 102.025 150.211 102.608 171.245 103.364 Z" style="fill: url(#gradient-3); filter: url(#gaussian-blur-filter-0);" transform="matrix(-0.499926, 0.866068, -0.866068, -0.499926, 234.7556, 109.56842)"/>
</svg>